<svg width="30" height="36" viewBox="0 0 30 36" fill="none" xmlns="http://www.w3.org/2000/svg">
<path d="M3 1H27C28.1046 1 29 1.89543 29 3V33C29 34.1046 28.1046 35 27 35H3C1.89543 35 1 34.1046 1 33V3C1 1.89543 1.89543 1 3 1Z" stroke="url(#paint0_linear_402_716)" stroke-width="2"/>
<circle cx="24.5" cy="5.5" r="1.5" fill="url(#paint1_linear_402_716)"/>
<circle cx="20.5" cy="5.5" r="1.5" fill="url(#paint2_linear_402_716)"/>
<circle cx="15" cy="22" r="8" stroke="url(#paint3_linear_402_716)" stroke-width="2"/>
<path d="M4 5.5C4 4.67157 4.67157 4 5.5 4H10.5C11.3284 4 12 4.67157 12 5.5V5.5C12 6.32843 11.3284 7 10.5 7H5.5C4.67157 7 4 6.32843 4 5.5V5.5Z" fill="url(#paint4_linear_402_716)"/>
<path d="M2 10L28 10" stroke="url(#paint5_linear_402_716)" stroke-width="2"/>
<defs>
<linearGradient id="paint0_linear_402_716" x1="30" y1="15.4887" x2="4.23074e-07" y2="15.4887" gradientUnits="userSpaceOnUse">
<stop stop-color="#33BBCF"/>
<stop offset="1" stop-color="#DEF9FA"/>
</linearGradient>
<linearGradient id="paint1_linear_402_716" x1="29" y1="7" x2="2.75" y2="7" gradientUnits="userSpaceOnUse">
<stop stop-color="#33BBCF"/>
<stop offset="1" stop-color="#DEF9FA"/>
</linearGradient>
<linearGradient id="paint2_linear_402_716" x1="28.75" y1="6.625" x2="2.875" y2="6.25" gradientUnits="userSpaceOnUse">
<stop stop-color="#33BBCF"/>
<stop offset="1" stop-color="#DEF9FA"/>
</linearGradient>
<linearGradient id="paint3_linear_402_716" x1="30.3" y1="21.55" x2="-1.2" y2="21.55" gradientUnits="userSpaceOnUse">
<stop stop-color="#33BBCF"/>
<stop offset="1" stop-color="#DEF9FA"/>
</linearGradient>
<linearGradient id="paint4_linear_402_716" x1="0.444444" y1="4.75" x2="31.5556" y2="4.75" gradientUnits="userSpaceOnUse">
<stop stop-color="#DEF9FA"/>
<stop offset="1" stop-color="#33BBCF"/>
</linearGradient>
<linearGradient id="paint5_linear_402_716" x1="29.3929" y1="12" x2="-2.64286" y2="12" gradientUnits="userSpaceOnUse">
<stop stop-color="#33BBCF"/>
<stop offset="1" stop-color="#DEF9FA"/>
</linearGradient>
</defs>
</svg>
